<?xml version="1.0" encoding="utf-8"?>
<!-- Generator: Adobe Illustrator 16.0.0, SVG Export Plug-In . SVG Version: 6.00 Build 0)  -->
<!DOCTYPE svg PUBLIC "-//W3C//DTD SVG 1.1//EN" "http://www.w3.org/Graphics/SVG/1.1/DTD/svg11.dtd">
<svg version="1.1" id="Capa_1" xmlns="http://www.w3.org/2000/svg" xmlns:xlink="http://www.w3.org/1999/xlink" x="0px" y="0px"
	 width="574.87px" height="208.531px" viewBox="0 0 574.87 208.531" enable-background="new 0 0 574.87 208.531"
	 xml:space="preserve">
<g>
	<path fill-rule="evenodd" clip-rule="evenodd" d="M309.995,112.066c5.851-0.336,7.524-5.481,12.073-7.038
		c5.207-1.782,4.972-2.354,6.721,2.695c0.471,1.359,1.395,2.568,1.823,3.936c1.083,3.465,1.399,3.688,3.811,1.977
		c2.178-1.546,4.352-3.099,6.527-4.648c3.922-2.792,5.75-2.609,8.406,0.838c2.92,3.789,3.328,3.916,6.397,1.23
		c2.273-1.99,3.979-4.96,7.755-3.974c0.848,0.221,2.396,0.338,2.442,0.67c0.959,6.783,4.336,1.271,6.314,1.048
		c1.879-0.212,3.553-1.883,5.413-2.689c4.622-2.002,6.223-1.396,9.325,3.252c2.156,3.231,4.861,4.401,8.56,3.182
		c3.287-1.084,6.629-2.265,9.6-3.998c8.658-5.05,16.927-5.479,24.905,1.229c1.935,1.626,3.915,1.805,5.732,0.117
		c2.943-2.732,6.229-1.911,9.324-0.878c8.729,2.913,17.75,4.199,26.75,5.856c5.434,1,11.11,0.352,16.079,1.919
		c5.521,1.741,11.069,0.298,16.179,1.737c11.934,3.361,23.959,0.934,35.906,1.62c2.636,0.151,6.154,0.283,6.128,2.681
		c-0.035,3.233-3.663,3.103-6.455,3.064c-5.947-0.081-11.909,0.211-17.841-0.102c-4.458-0.235-8.868-1.254-13.317-1.778
		c-4.148-0.49-8.455,0.916-12.46-1.765c-1.297-0.869-3.674-0.024-5.542-0.16c-4.476-0.325-8.899,0.635-13.419-1.646
		c-3.576-1.804-8.584,1.452-12.266-2.089c-9.498,0.162-18.747-3.14-28.342-1.912c-7.678,0.983-7.693,0.854-12.989-3.811
		c-4.32,6.142-9.595,7.423-16.642,4.235c-4.576-2.07-9.117,1.811-13.851,2.118c-1.952,0.126-4.218,0.779-5.687,1.987
		c-4.813,3.959-8.393,1.893-11.783-1.861c-2.025-2.243-3.959-4.197-6.616-0.776c-0.119,0.151-0.611,0.07-0.913,0.012
		c-3.187-0.614-6.868-2.528-9.426-1.537c-2.996,1.161-5.765,1.455-8.744,1.52c-1.201,0.027-2.883,0.256-3.531-0.405
		c-2.99-3.05-5.449-0.874-8.063,0.426c-1.298,0.645-2.555,1.586-3.928,1.824c-5.008,0.864-9.225-0.378-11.146-5.575
		c-0.548-1.479-0.557-2.114-2.069-0.875c-2.543,2.084-5.195,4.038-7.844,5.989c-1.182,0.871-3.236,2.527-3.573,2.247
		c-2.007-1.678-4.458-3.562-5.167-5.866c-0.881-2.86-1.283-6.769,0.017-9.206c2.563-4.807,1.041-9.502,1.79-14.45
		c-0.935,0.176-1.44,0.143-1.793,0.359c-3.221,1.979-7.458,3.323-9.329,6.199c-1.927,2.965-1.569,7.429-2.147,11.247
		c-0.139,0.918,0.267,1.999-0.076,2.791c-0.867,2.009-2.156,3.517-4.752,3.492c-2.648-0.026-4.24-1.548-4.476-3.702
		c-0.398-3.644-0.109-7.362-0.109-10.882c-2.97,2.97-5.734,5.733-9.048,9.047c0.38,0.279,1.766,1.006,2.752,2.094
		c1.217,1.343,1.235,2.703-0.893,3.408c-1.646,0.546-3.397,1-4.824,1.922c-1.774,1.147-2.966,2.571-3.129,5.181
		c-0.764,12.26-2.626,24.47-1.713,36.795c0.285,3.836,1.437,7.605,1.758,11.441c0.312,3.731,0.068,7.508,0.068,11.923
		c-1.692,0.116-3.462,0.461-5.164,0.256c-0.847-0.102-1.971-1.062-2.291-1.895c-3.998-10.418-6.051-21.186-5.727-32.395
		c0.172-5.943-0.045-11.897,0.068-17.844c0.044-2.348-0.969-5.012,1.612-6.908c0.228-0.167-0.783-2.758-1.033-2.727
		c-6.032,0.751-12.28-1.902-18.222,1.308c-1.214,0.656-3.533,0.063-4.96-0.685c-1.579-0.826-3.203-2.735-0.957-4.363
		c4.536-3.291,2.603-7.925,2.649-12.013c0.012-1.04-3.542-3.205-3.765-3.001c-4.384,4.006-6.891-0.601-10.503-1.718
		c-1.337,3.345-2.829,7.063-4.309,10.788c-0.642,1.614-0.855,3.612-1.955,4.788c-3.526,3.767-6.654,8.56-13.186,6.707
		c-1.449-0.412-3.115-0.029-4.679-0.066c-5.188-0.125-5.708-0.705-6.527-6.426c-0.148-1.028-0.858-1.977-1.308-2.962
		c-1.029,0.541-2.313,0.858-3.022,1.675c-0.925,1.064-1.149,2.766-2.125,3.748s-2.465,1.891-3.797,1.999
		c-3.422,0.277-7.302,1.09-10.225-0.145c-4.222-1.784-7.236-2.317-10.223,1.686c-0.488,0.652-2.806,0.879-3.426,0.334
		c-3.242-2.85-7.021-1.599-10.578-1.744c-4.146-0.169-8.132,0.034-10.129-4.941c-0.73-1.818-2.674-0.754-3.725,0.587
		c-2.03,2.589-3.76,5.459-6.042,7.796c-3.757,3.848-6.89,2.95-8.623-2.158c-0.372-1.1-0.67-2.226-1.068-3.315
		c-0.396-1.085-0.875-2.141-1.689-4.105c-5.816,6.6-11.425,12.83-16.826,19.232c-0.843,0.999-1.025,2.789-1.04,4.217
		c-0.089,9.079-0.205,18.163,0.042,27.236c0.087,3.199,1.397,6.348,1.726,9.562c0.311,3.046,0.067,6.148,0.067,9.574
		c-3.142,0-6.764,1.066-8.372-0.278c-1.883-1.575-2.637-5.223-2.747-8.016c-0.146-3.722-1.848-6.817-2.888-10.142
		c-1.924-6.153-3.93-12.239-4.83-18.667c-0.722-5.156,0.891-9.406,5.204-11.875c5.098-2.918,6.57-7.043,6.131-12.419
		c-0.098-1.197-0.015-2.409-0.015-4.382c-6.254,4.814-12.121,8.549-19.667,4.21c-1.123-0.646-3.746,0.038-4.918,1.015
		c-2.842,2.368-5.805,5.238-9.462,4.16c-4.532-1.334-8.583-4.101-10.103-9.199c-0.247-0.829-0.489-1.719-0.988-2.391
		c-0.294-0.395-1.113-0.628-1.655-0.568c-1.706,0.19-4.532,1.279-4.887,0.722c-1.364-2.142-2.775-4.834-2.647-7.24
		c0.431-8.2-1.994-16.602,1.643-24.627c0.589-1.299,0.254-3.116,0.053-4.656c-0.928-7.096,1.271-13.891,2.023-20.815
		c0.238-2.18,1.57-4.401,2.879-6.27c2.898-4.137,4.731-4.56,8.886-1.732c3.2,2.179,5.992,4.958,9.042,7.372
		c0.071,0.057,1.522-1.027,1.545-1.611c0.147-3.751,0.111-7.512,0.063-11.267c-0.031-2.464,1.749-2.261,3.171-1.991
		c0.904,0.172,2.258,1.06,2.365,1.78c0.314,2.145,0.345,4.396,0.073,6.553c-1.361,10.83,2.766,21.309,1.991,32.105
		c-0.073,1.018,0.918,2.09,1.333,3.169c0.815,2.114,0.903,4.004-1.016,5.789c-1.74,1.618-3.312,1.773-4.098-0.319
		c-1.427-3.798-3.182-7.63-3.686-11.59c-1.351-10.62-5.777-19.362-14.181-26.021c-3.661,3.759-1.753,8.973-3.05,13.31
		c-2.92,9.763-1.028,19.58-1.666,29.339c-0.142,2.164,0.42,3.109,2.814,4.531c4.755,2.826,4.764,9.063,6.522,13.974
		c0.396,1.106-0.239,2.859,0.41,3.527c0.856,0.882,1.087,3.279,3.995,1.449c4.507-2.836,8.715-5.237,9.176-11.246
		c0.067-0.876,1.57-1.806,2.603-2.329c0.262-0.132,1.454,1.105,1.895,1.895c0.986,1.766,1.913,3.593,2.601,5.49
		c1.314,3.618,2.497,4.571,5.145,3.147c2.334-1.255,4.529-2.874,6.525-4.627c2.582-2.268,4.857-4.882,7.359-7.246
		c1.593-1.504,2.808-0.914,3.549,1.546c1.382,4.593,2.823,9.174,2.16,14.369c6.24-6.568,12.085-13.043,16.679-20.567
		c0.752-1.232,2.613-3.055,3.306-2.803c1.673,0.608,2.556,2.324,2.341,4.524c-0.272,2.791-0.102,5.629-0.045,8.446
		c0.018,0.879,0.087,1.859,0.488,2.601c0.428,0.792,1.375,1.973,1.917,1.885c0.964-0.157,2.074-0.96,2.627-1.814
		c1.904-2.937,3.464-6.1,5.404-9.011c1.66-2.49,3.033-2.563,5.112-0.25c1.357,1.508,2.354,3.372,3.351,5.167
		c2.879,5.187,3.841,5.405,9.09,1.896c1.71-1.143,3.666-1.999,5.156-3.37c3.599-3.313,7.156-6.33,6.471-12.419
		c-0.798-7.111-0.289-14.382-0.152-21.581c0.099-5.221,1.425-10.073,5.7-13.573c0.632-0.517,1.712-0.974,2.4-0.785
		c0.563,0.154,1.198,1.31,1.206,2.027c0.083,8.453,1.333,17.17-0.342,25.277c-1.399,6.772-1.01,13.326-1.454,19.969
		c-0.101,1.512-0.293,3.328,0.411,4.484c0.578,0.95,1.25,3.526,3.948,1.275c3.084-2.572,6.914-4.311,10.554-6.142
		c4.444-2.235,8.96-4.004,13.177,0.724c0.665,0.747,2.218,1.203,3.243,1.041c4.468-0.702,5.7,2.391,7.001,5.662
		c6.252-4.359,6.703-11.642,8.33-17.88c1.409-5.405,0.414-11.302,1.822-17.077c0.975-4.001,0.683-8.675-1.156-13.383
		c-1.804-4.618-0.562-10.501-0.262-15.806c0.066-1.169,1.795-2.244,2.759-3.362c0.885,0.885,2.284,1.635,2.562,2.682
		c0.907,3.418,1.44,6.939,2.053,10.433c0.667,3.803,1.353,7.607,1.861,11.434c0.47,3.531-0.68,7.108,1.705,10.625
		c1.163,1.716-0.027,4.901,0.281,7.368c0.209,1.671,1.149,3.257,1.804,4.865c1.014,2.49,3.181,1.179,4.82,1.321
		c5.126,0.446,7.427,2.545,8.368,7.609c0.368,1.98,1.227,3.868,1.833,5.806c1.645,5.252,3.191,6.887,7.413,5.186
		c3.286-1.324,6.364-1.435,9.638-1.741c1.019-0.095,2.235-1.121,2.804-2.06c0.484-0.798,0.167-2.082,0.205-3.151
		c-4.5,0.053-5.181-6.115-9.734-5.977c-5.155-4.57-8.768-9.478-8.652-17.168c0.151-10.003,3.221-18.346,8.86-26.515
		c5.459-7.908,10.533-16.02,17.444-22.779c1.091-1.068,2.171-2.221,3.461-2.991c1.759-1.049,4.453,0.66,4.195,2.786
		c-0.538,4.444,0.304,8.771-1.369,13.478c-1.48,4.159-1.845,9.375-2.137,14.102c-0.374,6.063-3.458,11.783-2.068,17.995
		c-3.504,6.67-1.162,13.739-2.233,22.174c6.222-6.069,11.935-9.195,19.178-10.889c6.81-1.592,13.184-6.204,18.945-10.553
		c2.299-1.735,3.243-6.291,3.395-9.627c0.318-7.015,3.937-12.838,5.932-19.22c0.435-1.39,2.335-2.849,3.845-3.277
		c4.749-1.344,5.266,0.771,5.653,6.57c0.673,10.067-4.978,17.405-9.004,25.495c-2.078,4.174-4.725,7.994-5.323,12.846
		C312.114,101.248,310.938,106.692,309.995,112.066z M321.251,60.261c-0.627,0.114-1.252,0.228-1.879,0.341
		c0,1.742-0.077,3.489,0.041,5.223c0.043,0.618,0.56,1.205,0.86,1.806c0.326-0.459,0.907-0.905,0.933-1.38
		c0.106-1.992,0.045-3.993-1.834,2.217c0-0.279,0-0.559,0-0.837c-0.486,0.173-1.032,0.27-1.424,0.568
		c-0.117,0.089,0.195,0.742,0.312,1.137C318.63,69.048,319.002,68.759,321.251,60.261z M259.255,140.797
		c0.627-0.127,1.252-0.255,1.879-0.382c0-3.611,0.043-7.224-0.042-10.833c-0.015-0.617-0.569-1.223-0.875-1.833
		c-0.321,0.473-0.91,0.942-0.92,1.422c-0.075,3.874-0.042,7.75,2.929-3.147c-0.362,0.294-0.727,0.592-1.092,0.888
		c0.279,0.279,0.559,0.559,0.837,0.838c0.289-0.371,0.613-0.723,0.835-1.131C262.844,126.548,262.444,126.241,259.255,140.797z
		 M262.276,103.949c0.969-3.994,2.587-7.418,2.458-10.777c-0.318-8.287,3.43-16.169,2.035-24.483
		c2.38-4.169,0.525-9.357,2.244-13.084c1.754-3.801,1.274-6.832,1.092-11.172c-4.399,6.48-8.174,12.318-12.232,17.952
		c-5.551,7.706-9.364,15.839-8.071,25.696c0.244,1.856,0.8,3.265,1.721,4.938C254.063,97.631,259.304,99.158,262.276,103.949z
		 M89.105,165.176c0.962-7.607,2.039-15.13-1.581-22.23c-3.092,1.382-3.561,4.149-2.907,6.858
		C85.871,154.987,87.583,160.059,89.105,165.176z M380.64,109.775c-0.51,2.333-0.92,3.791-1.095,5.275
		c-0.05,0.435,0.571,0.949,0.884,1.427c0.939-1.433,1.949-2.829,2.728-4.345C383.25,111.947,382.102,111.124,380.64,109.775z
		 M412.439,116.615c0.835-0.908,1.639-1.781,2.442-2.654c-0.529-0.414-1.436-1.256-1.529-1.173c-0.73,0.641-1.41,1.404-1.86,2.259
		C411.361,115.297,412.028,115.966,412.439,116.615z M157.424,114.671c-0.689,0.429-1.446,0.704-1.432,0.927
		c0.055,0.829,0.364,1.641,0.578,2.459c0.413-0.235,1.161-0.451,1.175-0.709C157.793,116.526,157.57,115.689,157.424,114.671z"/>
	<path fill-rule="evenodd" clip-rule="evenodd" d="M461.88,6.305c-0.218,0.394-0.443,0.802-0.669,1.21
		c-0.209-0.209-0.622-0.463-0.587-0.617c0.098-0.442,0.378-0.844,0.587-1.262C461.42,5.845,461.628,6.053,461.88,6.305z"/>
	<path fill-rule="evenodd" clip-rule="evenodd" d="M571.384,205.984c0.217-0.394,0.442-0.802,0.668-1.21
		c0.209,0.209,0.622,0.463,0.587,0.617c-0.097,0.442-0.378,0.844-0.587,1.261C571.843,206.443,571.634,206.235,571.384,205.984z"/>
	<path fill-rule="evenodd" clip-rule="evenodd" fill="#FFFFFF" d="M321.251,60.261c0,1.998,0.062,3.999-0.045,5.991
		c-0.025,0.475-0.606,0.921-0.933,1.38c-0.301-0.601-0.817-1.188-0.86-1.806c-0.118-1.734-0.041-3.481-0.041-5.223
		C319.999,60.489,320.624,60.375,321.251,60.261z"/>
	<path fill-rule="evenodd" clip-rule="evenodd" fill="#FFFFFF" d="M319.372,68.469c-0.37,0.29-0.742,0.579-1.112,0.868
		c-0.116-0.395-0.429-1.048-0.312-1.137c0.392-0.298,0.938-0.395,1.424-0.568C319.372,67.911,319.372,68.19,319.372,68.469z"/>
	<path fill-rule="evenodd" clip-rule="evenodd" fill="#FFFFFF" d="M262.226,126.023c0.218,0.217,0.618,0.524,0.58,0.594
		c-0.222,0.408-0.546,0.761-0.835,1.131c-0.279-0.279-0.559-0.559-0.837-0.838C261.499,126.615,261.864,126.318,262.226,126.023z"/>
</g>
</svg>
