<?xml version="1.0" encoding="utf-8"?>
<!-- Generator: Adobe Illustrator 16.0.0, SVG Export Plug-In . SVG Version: 6.00 Build 0)  -->
<!DOCTYPE svg PUBLIC "-//W3C//DTD SVG 1.1//EN" "http://www.w3.org/Graphics/SVG/1.1/DTD/svg11.dtd">
<svg version="1.1" id="Capa_1" xmlns="http://www.w3.org/2000/svg" xmlns:xlink="http://www.w3.org/1999/xlink" x="0px" y="0px"
	 width="557.883px" height="350.613px" viewBox="0 0 557.883 350.613" enable-background="new 0 0 557.883 350.613"
	 xml:space="preserve">
<g>
	<path d="M357.037,101.773c5.808,2.313,10.788,2.554,15.009,6.129c-0.78-2.445-1.561-4.892-2.104-6.597
		c2.292-4.449,4.212-8.175,6.089-11.817c4.529,0.773,2.979,4.831,4.791,8.057c0.546-2.676,0.935-4.583,1.441-7.075
		c3.063,1.508,5.688,2.799,8.621,4.241c0-1.444,0-2.946,0-4.257c2.199-1.234,4.006-2.247,6.036-3.387
		c1.063,0.539,2.272,1.15,4.689,2.374c-1.145-2.94-1.86-4.781-2.9-7.454c3.569-2.396,7.296-4.896,11.592-7.78
		c0.66-1.033,1.803-2.82,3.438-5.379c0.496,2.623,0.825,4.366,1.361,7.209c1.124-1.878,2.01-4.251,2.589-4.181
		c3.724,0.467,1.91-3.613,3.929-4.381c1.667-0.634,3.283-1.401,4.903-2.103c1.388,2.208,2.485,3.958,3.657,5.822
		c2.48,0.388,4.922,0.624,7.273,1.215c0.807,0.202,1.39,1.293,2.138,2.041c-0.135,2.661,1.289,5.704-1.611,7.717
		c0.719,1.291,1.432,2.57,2.46,4.422c2.522,1.278,5.723,2.898,9.994,5.063c0.438-1.713,0.961-3.769,1.181-4.624
		c4.35,1.29,6.537,1.939,8.711,2.584c0.986,3.61,2.017,7.373,3.262,11.926c0.999-2.137,1.605-3.431,2.067-4.416
		c2.216-2.545,3.389,3.866,5.758,0.282c0.205-0.31,2.79,0.955,6.008,2.115c-1.437-1.99-1.842-2.553-2.588-3.586
		c1.194-1.369,2.511-2.878,3.729-4.273c-0.807-2.079-1.514-3.902-2.565-6.616c8.436,0.934,5.511,8.736,8.617,11.301
		c2.388-0.688,4.375-1.258,6.107-1.756c2.207,2.207,4.033,4.033,6.001,6c2.4,0,4.942,0,7.901,0c0.92,0.881,1.979,1.893,2.948,2.818
		c-0.846,1.067-1.353,1.708-1.916,2.421c0.837,0.305,1.479,0.798,1.944,0.666c2.604-0.74,5.161-1.634,7.764-2.483
		c1.887,1.684,3.386,3.023,5.462,4.875c0.168-2.328,0.276-3.856,0.393-5.456c1.631-1.415,1.854,1.217,2.728,1.086
		c6.462-0.978,10.46,3.445,14.496,7.028c3.525,3.128,7.196,5.681,11.531,7.241c-1.786,2.51-3.48,4.895-5.74,8.069
		c-0.967-1.634-1.625-2.75-2.456-4.158c-1.824-0.587-4.087-1.316-6.503-2.096c-0.795,1.616-1.847,3.756-2.862,5.825
		c0.884,0.97,1.521,1.672,1.822,2.001c-4.179,2.839-8.443,5.739-13.296,9.038c-3.677-0.315-7.617,1.076-10.761,4.142
		c-0.297,0.409-0.463,0.639-0.629,0.865c2.309,1.491,2.675,4.114,1.509,5.846c-2.957,4.395-6.534,8.37-10.32,13.08
		c-1.142-4.688-2.11-8.68-3.044-12.515c3.934-6.151,11.244-9.291,12.906-17.028c-1.5,1.311-3.001,2.62-4.521,3.949
		c-1.791-0.891-3.387-1.685-5.271-2.621c-1.264,2.763-2.368,5.177-3.791,8.285c-2.002-0.25-4.375-0.549-6.749-0.842
		c-1.904-0.235-3.813-0.463-7.396-0.897c-4.562,0.672-5.496,7.611-10.744,10.401c2.668,1.729,4.955,3.211,7.296,4.729
		c0.622-0.563,1.3-1.179,1.979-1.793c0.218,0.219,0.549,0.405,0.657,0.681c1.249,3.145-1.442,7.121,2.07,9.796
		c-1.155,2.687-2.311,5.372-3.612,8.397c1.586,1.001,3.379,2.133,5.625,3.551c-1.801,1.22-3.653,2.474-5.972,4.041
		c0.555,1.066,1.229,2.359,1.938,3.724c-5.661,5.773-11.163,12.281-20.727,14.407c0.21-1.428-0.012-2.984,0.658-3.848
		c1.572-2.023,3.57-3.716,5.611-5.755c0.604,0.475,1.234,0.969,2.509,1.967c-0.334-4.801,5.365-3.813,6.429-7.729
		c-0.717-1.441-1.51-3.037-2.52-5.065c1.46-0.503,2.535-0.875,4.018-1.386c0-3.458,0-7.143,0-11.267
		c-2.809,4.281-5.365,8.179-7.713,11.757c-2.064,0-3.341,0-4.538,0c-4.527,3.938-5.291,9.042-4.736,14.4
		c-1.048,1.048-1.96,1.961-2.991,2.993c-1.075-3.098-2.134-6.145-3.151-9.08c-1.532-0.64-2.908-1.215-4.771-1.993
		c-1.174,0.583-2.9,1.44-5.858,2.908c3.66,0.267,6.074,0.441,10.641,0.773c-3.083,1.596-4.682,2.422-6.132,3.173
		c2.597,6.315,4.388,11.586-1.446,18.184c-2.951,2.079-9.165,3.831-12.839,9.2c-0.186,0.271-1.651-0.333-2.746-0.581
		c0.851-0.934,1.466-1.61,2.082-2.288c-1.653-1.653-1.836-1.583-6.313,2.814c1.02,0.871,1.988,1.701,4.191,3.585
		c0.164,0.305,1.149,2.144,2.483,4.637c-1.698,1.797-3.572,3.778-6.025,6.375c-3.025-1.822-5.804-3.492-9.943-5.982
		c2.271,5.442,1.527,10.874,7.988,11.593c-3.354,6.624-2.646,7.814,6.019,9.776c-0.615,1.405-1.184,2.7-1.836,4.193
		c0.093,0.085,0.448,0.708,0.88,0.767c5.213,0.707,10.434,1.363,15.658,1.968c5.424,0.627,11.999-0.151,17.145-1.985
		c0.313,0.836,0.624,1.675,0.902,2.424c-0.511,0.604-0.847,1.396-1.284,1.456c-5.209,0.728-10.421,1.489-15.658,1.949
		c-5.64,0.494-10.799-2.86-16.654-2.131c-1.875,0.231-4.223-2.121-6.123-3.587c-3.444-2.655-6.718-5.533-10.272-8.494
		c-0.74-2.532-1.57-5.364-2.558-8.739c1.852,0.756,3.248,1.326,5.725,2.337c-1.218-3.747-2.16-6.647-3.198-9.839
		c0.172-0.187,0.786-0.864,1.572-1.726c-1.578-1.072-3.072-2.085-5.123-3.479c-1.296-3.027-2.936-6.86-4.548-10.632
		c-7.291,2.339-10.771,8.238-15.6,12.337c0,2.073,0,4.005,0,6.833c1.006,0.677,2.535,1.708,4.064,2.736
		c-1.161,1.162-1.847,1.847-2.794,2.794c-1.991-1.374-4.094-2.824-6.954-4.796c0.35-5.717-7.003-9.71-5.987-16.56
		c-2.941-2.346-5.81-4.63-8.968-7.146c-3.614,0-7.719,0-11.822,0c-0.104,0.306-0.208,0.61-0.313,0.917
		c1.105,0.458,2.214,0.916,3.938,1.63c-1.003,2.381-2.007,4.767-3.193,7.585c-5.018,2.312-10.081,4.948-15.395,6.915
		c-1.674,0.62-4.011-0.553-6.486-0.982c-0.04,0.271-0.201,1.374-0.473,3.229c4.896,0,9.258,0,14.202,0
		c-3.196,10.146-11.816,14.735-18.206,22.84c0.672,4.084,1.51,9.188,2.45,14.918c-2.759,2.28-5.709,4.719-8.005,6.616
		c0,2.809,0,4.423,0,5.89c-1.983,3.194-3.775,6.363-5.847,9.337c-1.967,2.819-4.226,5.435-5.822,7.464
		c-4.45,0.696-8.044,1.259-12.938,2.023c-3.535-5.432-6.954-11.922-6.474-19.37c-2.818-5.298-6.07-9.734-2.247-15.788
		c2.226-3.522-0.604-7.175-2.204-10.34c-1.066-2.113-3.393-3.59-4.676-4.874c0.707-2.242,1.246-3.952,1.854-5.872
		c-3.506-2.119-6.744-4.075-10.553-6.377c-1.449,2.229-2.496,3.839-3.808,5.855c-4.096-6.129-7.626,0.273-9.987-0.457
		c-5.113-5.113-9.394-9.395-14.361-14.362c0.553-4.218,1.314-10.035,2.074-15.837c4.942-6.343,10.053-12.9,15.13-19.416
		c-2.231-1.319-4.056-2.397-5.808-3.433c0-3.79,0-7.247,0-11.044c3.64,0,7.104,0,11.205,0c0.104-1.803,0.19-3.303,0.282-4.893
		c-1.292-1.367-2.587-2.738-4.041-4.275c1.223-0.426,2.348-0.818,5-1.743c-3.73-0.621-6.063-1.009-8.793-1.464
		c5.535-6.786-1.209-13.595,0.225-20.354c4.631,0.102,4.631,0.102,7.719,3.746c-0.479,0.688-0.998,1.432-1.125,1.615
		c1.863,1.862,3.769,3.767,4.586,4.584c0.214,4.242,0.324,6.415,0.446,8.815c0.821-0.371,1.345-0.479,1.699-0.785
		c2.652-2.287,2.392-7.494,7.148-7.054c0.682-3.242,1.279-6.094,1.933-9.205c-1.306-0.112-2.832-0.243-4.407-0.378
		c-1.018-2.133-2.044-4.284-2.982-6.249c1.797-7.3,7.512-11.098,11.262-15.203c0.794-2.78,1.356-4.76,1.984-6.964
		c-0.357-0.534-1.025-1.531-1.861-2.777c5.896-6.539,13.153-10.19,20.63-12.665c2.032,0.653,4.02,1.29,6.555,2.104
		c0.163,0.462,0.561,1.584,0.957,2.707c7.566,1.028,12.717,5.301,16.084,11.971c0.825-1.602,1.65-3.207,2.528-4.912
		c-0.398-0.448-1.006-1.132-2.927-3.294c3.387,1.243,5.138,1.885,6.868,2.521c-0.816,2.044-1.406,3.519-1.996,4.993
		c0.449,0.271,0.897,0.544,1.348,0.815c1.957-2.416,3.913-4.831,6.278-7.751c0.472,0,1.791-0.222,2.98,0.077
		c0.825,0.206,1.47,1.13,1.469,1.129c3.457-0.688,6.38-1.271,9.479-1.89C360.754,106.081,359.398,104.51,357.037,101.773z
		 M298.424,183.27c-4.223-2.596-8.195-5.039-12.082-7.428c-1.13,1.022-1.83,1.66-2.535,2.298c-0.658-0.584-1.343-1.192-2.012-1.786
		c-2.177,3.683-4.353,7.364-7.116,12.041c6.002-1.05,10.708-1.874,15.993-2.799c0.971,3.078,1.684,5.345,2.355,7.479
		c3.24,1.595,6.45,3.173,9.585,4.715c1.846-1.585,3.478-2.985,4.91-4.213c2.12,0.803,4.221,2.385,5.378,1.865
		c2.202-0.988,3.236,4.068,5.576,0.662c0.354-0.512,2.971,0.535,4.901,0.936c1.164-2.025,2.46-4.285,4.209-7.331
		c-5.597,0-10.609,0-14.891,0c0.469-2.762,0.842-4.966,1.3-7.667c-2.484,2.567-4.396,4.543-7.113,7.353
		c-1.659-3.868-2.778-6.478-3.928-9.151c-1.451,3.729-3.377,6.754-7.85,8.098c-0.301-1.425-0.529-2.508-0.744-3.524
		C295.885,184.236,296.998,183.812,298.424,183.27z"/>
	<path d="M146.811,85.577c-2.62,4.454-5.072,8.624-7.883,13.403c1.453,1.566,2.909,3.133,4.344,4.682
		c-0.575,0.637-1.184,1.313-1.877,2.082c2.549,1.158,4.998,2.271,7.527,3.42c0.161,1.477,0.327,3.002,0.638,5.858
		c1.379-2.45,2.268-4.029,3.334-5.925c-2.173-2.889-4.575-6.08-7.457-9.91c0-1.653,0-4.191,0-7.36
		c1.63-1.479,3.652-3.313,6.253-5.674c0.923,2.078,1.493,3.36,2.057,4.63c1.236-0.693,2.474-1.389,4.486-2.517
		c0.366,2.479,0.622,4.213,0.921,6.246c0.779,0.166,1.66,0.354,3.416,0.726c-0.796-1.993-1.366-3.419-2.014-5.041
		c0.863-0.469,1.611-0.877,3.063-1.666c1.394,3.507,2.673,6.725,4.155,10.454c1.088-0.505,2.383-1.106,3.15-1.463
		c2.417,2.278,4.865,4.585,7.59,7.154c-0.652,0.91-1.354,1.887-2.319,3.231c3.467,2.814,7.076,5.743,10.934,8.876
		c-0.528,2.013-1.16,4.426-1.799,6.859c-0.883,0.23-1.757,0.458-2.632,0.688c0.531,2.138,1.07,4.308,1.573,6.336
		c-2.035,1.053-3.617,1.869-5.784,2.988c-3.43-2.902-7.242-6.128-11.103-9.395c-1.098,1.024-2.436,2.272-4.259,3.974
		c0-2.033,0-3.536,0-5.418c2.155-1.94,4.726-4.255,7.511-6.764c-2.623-4.192-4.918-7.862-7.428-11.875
		c-1.16,0.669-2.194,1.266-3.228,1.861c-1.308-0.504-2.792-1.076-4.276-1.648c-0.328,0.47-0.656,0.941-0.985,1.412
		c1.605,0.834,3.21,1.669,4.578,2.382c-1.302,1.995-1.926,2.952-2.764,4.235c0.755,0.998,1.48,1.957,2.059,2.722
		c-1.125,2.051-2.253,4.109-3.381,6.167c1.826,1.826,3.651,3.652,5.477,5.479c-1.286,1.766-6.929,1.482-12.994-0.913
		c-3.347,4.723-6.811,9.608-10.026,14.145c0.989,1.925,1.813,3.528,2.784,5.416c1.658-2.044,3.253-4.01,4.549-5.607
		c6.644,0.951,7.13,7.673,11.566,9.696c0.992,3.318-1.183,7.537,4.214,9.335c-0.387-5.175,0.632-9.878,5.196-14.135
		c-2.309-1.34-3.978-2.31-4.497-2.611c0.718-4.84,1.242-8.373,1.796-12.104c1.832,0,3.7,0,5.444,0
		c2.334,2.454,4.711,4.952,7.554,7.939c0.06,0.549,0.221,2.038,0.571,5.291c2.201-2.813,3.351-4.284,4.462-5.704
		c5.005-0.386,3.857,5.109,6.591,6.895c-0.594,5.593,3.341,7.542,7.834,9.464c0,2.663,0,5.476,0,8.295
		c2.16,1.422,4.087,2.689,6.866,4.519c-2.742,1.55-4.705,2.661-6.831,3.862c-1.231-0.684-2.534-1.408-3.804-2.114
		c-3.105,2.699-6.136,5.334-9.319,8.103c-1.685-0.839-3.279-1.633-5.711-2.843c-1.313,2.927-2.516,5.606-3.743,8.341
		c-1.037,0-2.318,0-4.091,0c-1.02,2.964-2.081,6.051-3.327,9.671c-2.057,1.377-4.588,3.07-6.648,4.448
		c-1.927,4.276,4.148,7.192,0.51,11.301c-3.151-2.763-6.344-5.561-8.669-7.6c-5.074,0.851-8.959,1.504-13.179,2.211
		c-4.47,3.184-0.893,8.113-2.878,12.634c2.859,1.119,5.065,1.983,7.266,2.845c1.803-4.145,3.14-7.899,8.938-5.885
		c-0.727,2.646-1.485,5.403-2.154,7.837c3.07,1.419,5.708,2.638,8.842,4.086c-1.175,1.879-1.811,2.896-2.712,4.337
		c0.801,0.832,1.823,1.894,3.044,3.161c1.42-0.846,2.449-1.457,3.582-2.131c1.008,0.563,2.245,1.255,3.993,2.231
		c0.49-1.657,0.815-2.756,1.365-4.611c7.188,0.461,14.698-1.488,22.716,3.569c0.228,0.341,1.595,2.007,2.535,3.888
		c0.927,1.854,1.422,3.923,2.346,6.588c2.517-0.781,5.051-1.568,7.709-2.394c0.924,2.432,1.862,4.901,3.031,7.975
		c1.414-0.975,2.265-1.563,3.641-2.51c1.539,1.199,3.22,2.509,5.315,4.141c4.612-0.285,9.219,0.843,12.813,5.92
		c-2.105,2.312-4.198,4.606-5.094,5.591c-2.044,6.678-3.628,11.852-5.036,16.445c-4.087,1.677-7.676,3.147-11.116,4.558
		c-1.066,7.855-4.557,13.247-12.082,16.785c-0.041,0.825-0.112,2.326-0.217,4.479c-6.799,2.493-10.377,8.455-13.07,15.326
		c0.409,0.566,1.088,1.513,1.375,1.911c-2.268,2.219-4.288,4.193-5.189,5.074c-0.284,5.312,3.1,9.913,7.262,12.134
		c-1.849,0.971-3.697,1.941-5.545,2.915c-5.797-1.496-9.407-5.438-12.247-12.553c0.747-7.853,1.671-17.547,2.614-27.448
		c3.055-2.808,3.667-6.64,3.622-10.841c-0.04-3.68-0.488-7.319,1.688-10.934c1.115-1.85,0.196-4.924,0.196-7.039
		c-4.16-3.231-7.85-6.1-11.689-9.079c1.307-5.367-3.342-7.12-5.073-9.524c0.639-2.9,1.156-5.246,2.034-9.229
		c1.016-1.018,3.199-3.202,5.812-5.82c-1.271-1.461-2.26-2.599-3.356-3.859c-0.973,0.591-1.914,1.162-3.456,2.1
		c-5.915-5.391-11.455-11.878-19.982-13.943c-0.674,0.626-1.373,1.273-1.826,1.694c-4.076-2.074-8.073-4.108-12.539-6.378
		c0-1.021,0-2.531,0-3.729c-1.254-1.254-2.167-2.167-3.082-3.081c-0.942,0.697-1.882,1.396-2.461,1.823
		c-3.555-0.003-11.3-10.896-12.479-16.763c-9.385-4.927-12.704-13.196-9.27-23.745c-2.166-3.94-4.456-8.107-6.746-12.274
		c-2.767-6.438-11.912-7.568-12.749-16.027c-3.174-1.59-6.254-3.57-9.62-4.695c-3.467-1.161-7.036,0.647-9.339,2.751
		c-2.347,2.144-3.332,5.776-5.262,9.413c-0.787-2.164-1.194-3.283-1.819-5.002c-2.281,2.888-4.271,5.405-6.245,7.901
		c-0.305-0.307-0.761-0.762-1.217-1.218c-4.903,1.476-8.746,6.185-15.992,5.09c7.258-3.814,13.922-6.154,18.476-12.582
		c-1.701-0.306-3.249-0.583-4.22-0.758c-2.588-3.185-4.917-6.054-7.579-9.33c1.365-3.345,4.016-5.661,7.86-7.489
		c-2.298-0.247-4.597-0.495-6.894-0.742c0.345-0.339,0.691-0.678,1.038-1.017c-1.583-0.558-3.167-1.113-6.383-2.243
		c4.813-2.391,7.373-3.662,10.433-5.182c-2.112-2.113-4.201-4.206-6.951-6.958c5.843-3.822,9.527-9.2,16.189-10.797
		c8.19,4.7,19.217,2.919,27.293,9.34c1.634-0.938,2.925-1.682,4.283-2.461c1.059,0.666,2.021,1.271,3.23,2.028
		c0.218-0.975,0.415-1.852,0.681-3.035c1.986-0.625,4.242-1.335,6.888-2.168c1.525,0.854,3.576,2.003,5.655,3.167
		c0.52-0.463,1.193-1.063,1.547-1.38c2.849,1.327,5.472,2.548,8.485,3.951c-1.58-4.9-2.911-9.037-4.477-13.896
		c-1.376,1.887-2.771,3.797-4.543,6.227c-2.104-1.823-4.172-3.617-5.686-4.93c0.808-4.57,1.495-8.461,2.304-13.042
		c6.781,0.345,12.476,2.631,15.362,9.888c0.98-0.861,1.65-1.449,2.535-2.228c0.391,1.168,0.757,2.266,1.309,3.917
		c3.43-2.71,6.781-5.358,11.529-9.111c-1.256,5.035-2.036,8.16-2.885,11.564c2.382,2.387,4.566,4.573,6.792,6.802
		c-1.541,2.808-2.821,5.139-4.296,7.828c2.476,0,4.869,0,7.662,0c-0.744-1.178-1.322-2.095-2.16-3.425
		c0.854-3.013,6.449-4.758,3.375-9.602c-0.659,0.518-1.296,1.019-1.918,1.508c-1.652-2.312-3.343-4.674-5.083-7.108
		c0.804-1.836,1.642-3.748,2.429-5.544c1.61-0.754,3.154-1.478,5.379-2.52c0,2.711,0,5.104,0,7.497
		c0.303,0.04,0.606,0.08,0.909,0.12c0.889-2.378,1.777-4.755,2.724-7.286C142.22,85.577,144.719,85.577,146.811,85.577z"/>
	<path d="M185.96,30.994c5.407-3.687,11.899-4.027,17.805-6.097c1.497,2.206,2.827,4.167,4.342,6.399
		c1.021-2.061,1.875-3.782,2.733-5.513c-1.229-0.443-2.349-0.849-3.974-1.437c1.191-2.501,2.289-4.805,3.743-7.854
		c2.119,1.815,3.735,3.199,5.791,4.961c0.297-1.864,0.569-3.572,0.69-4.335c1.921-1.844,3.278-3.146,5.75-5.517
		c3.277,0.586,8.002,1.433,13.049,2.335c0.999,4.354,3.369,7.961,8.879,9.871c-3.319,2.361-5.915,4.208-8.51,6.056
		c0.092,0.31,0.183,0.619,0.274,0.93c2.327-0.533,4.654-1.064,7.939-1.816c-0.601,1.807-0.916,2.852-1.296,3.871
		c-0.387,1.04-0.838,2.055-0.215,4.012c3.304-2.42,6.608-4.84,9.86-7.222c1.527,1.305,3.38,2.892,5.753,4.921
		c-2.528,2.705-4.647,4.972-6.765,7.239c0.273,0.154,0.548,0.309,0.822,0.463c-1.29,2.354-2.58,4.706-4.688,8.553
		c0,0.407,0,2.573,0,4.609c-1.457,0.543-2.571,0.958-4.242,1.582c0.685,1.455,1.295,2.75,1.99,4.226
		c-0.36,0.396-0.975,1.072-1.335,1.47c1.846,2.758,3.655,5.461,6.554,9.792c-3.17-1.206-4.657-1.772-6.19-2.354
		c-0.749,0.714-1.676,1.599-2.254,2.15c1.799,1.85,3.56,3.661,5.375,5.526c-1.36,2.58-2.564,4.866-3.987,7.567
		c0.559,0.798,1.249,1.782,1.928,2.75c-1.843,1.182-3.828,2.455-6.517,4.179c2.366,2.729,4.382,5.056,6.607,7.623
		c-5.113,4.526-9.853,9.404-16.314,13.064c-6.607,3.743-11.948,10.347-15.862,17.328c-1.105,1.973-0.77,4.755-1.172,7.734
		c-2.337-1.075-4.178-1.921-6.564-3.018c-0.595-1.021-1.526-2.567-2.407-4.144c-0.729-1.306-2.116-2.746-1.949-3.952
		c0.386-2.792-1.071-4.748-2.08-6.963c-2.198-4.819-2.193-4.821-0.172-9.607c-1.595-2.813-3.062-5.4-4.96-8.747
		c3.141-0.647,5.13-1.058,7.473-1.54c-1.311-1.232-2.242-2.109-3.271-3.077c-0.597,0.515-1.263,1.089-1.964,1.695
		c-1.702-6.012-3.409-12.037-4.863-17.174c-1.979-2.501-3.539-4.473-5.213-6.59c-2.46,0.939-4.433,1.693-6.537,2.496
		c-1.366-0.678-2.936-1.458-5.131-2.548c-0.735-1.502-1.781-3.643-2.785-5.692c0.917-0.987,1.565-1.685,2.213-2.383
		c-1.808-2.057-4.73-3.537-3.599-7.934c3.316-1.767,7.189-3.832,11.316-6.031c0-0.747,0-2.021,0-3.936
		c-1.59-0.241-3.331-0.503-5.754-0.869c0-1.103,0-2.299,0-3.497c4.904-2.558,7.243-6.727,7.827-12.115
		C184.16,31.896,185.314,31.472,185.96,30.994z"/>
	<path d="M490.714,300.519c-3.166,0.648-7.042,1.443-10.336,2.119c-2.514-3.181-4.544-5.748-6.604-8.354
		c-0.79,0.788-1.246,1.244-1.313,1.313c-1.906-1.906-3.838-3.84-5.804-5.808c-7.194,2.258-13.507,4.168-19.77,6.235
		c-2.786,0.921-4.905,0.283-6.789-2.264c5.006-5.627-2.683-9.405-2.275-15.527c2.769-2.568,4.753-7.205,11.097-7.229
		c2.385-2.824,5.145-6.092,8.191-9.702c0.779,0.474,1.805,1.094,3.283,1.991c1.113-1.739,2.354-3.678,3.892-6.082
		c2.373,0.78,4.938,1.626,7.798,2.564c1.221,2.604-0.205,7.312,5.539,7.57c2.21-3.288-0.27-7.243,1.067-10.115
		c-2.723-2.722-4.992-4.992-7.381-7.379c-4.143-0.682-4.143-0.682-6.544-4.981c0.896-0.277,1.795-0.858,2.554-0.709
		c0.825,0.161,1.521,0.999,2.309,1.566c0.856-0.563,1.813-1.192,2.307-1.518c4.367,1.631,8.58,2.586,12.099,4.697
		c3.384,2.03,6.049,5.261,9.311,8.218c-0.405,0.068-1.734,0.299-3.064,0.525c-2.268,0.564-5.078-3.009-9.771-1.62
		c2.746,5.4,5.383,10.592,8.38,16.488c6.182,0.645,5.584,7.754,9.184,12.016C495.889,289.271,493.646,294.144,490.714,300.519z"/>
	<path d="M185.96,30.994c-0.646,0.479-1.8,0.901-1.858,1.443c-0.584,5.389-2.923,9.559-7.827,12.115
		c-1.97,1.531-3.941,3.062-5.925,4.603c0.774,0.871,1.382,1.556,2.246,2.526c-3.249,1.108-6.355,2.168-10.334,3.526
		c1.478,0.56,2.355,0.893,3.879,1.47c2.587,5.496-4.53,7.625-4.898,12.534c0.256,0.305,1.003,0.956,1.42,1.774
		c0.239,0.472-0.058,1.215-0.175,2.515c-5.545,0-11.198,0-17.006,0c0,1.553,0,2.427,0,3.243c4.26,2.771,7.67-1.521,11.577-1.208
		c3.167,1.176,4.267,3.483,3.683,6.899c-0.829,0.754-1.778,1.618-2.853,2.594c-0.549-0.465-1.211-1.023-1.866-1.578
		c-2.913,0.589-5.857,1.185-8.803,1.78c-0.51-0.646-0.99-1.819-1.535-1.85c-3.162-0.178-6.339-0.087-9.795-0.087
		c0-4.465,0-8.568,0-12.65c-0.207-0.025,8.292,1.028,8.423,1.044c1.294-2.585,2.608-5.208,3.767-7.521
		c1.194-0.336,2.056-0.579,2.916-0.821c-0.827-1.453-1.54-2.707-2.646-4.652c3.139-0.354,5.537-0.624,9.186-1.035
		c-2.551-2.121-4.496-3.739-6.441-5.356c-1.22-1.684-2.44-3.368-3.633-5.014c0.403-0.965,3.347-2.083-0.241-2.734
		c-0.618-1.986-1.236-3.974-1.963-6.31c0.479-0.701,1.126-1.646,2.013-2.94c-1.955-0.293-3.729-0.56-5.616-0.844
		c0.295-0.63,0.382-1.246,0.729-1.485c1.733-1.195,3.735-2.076,5.247-3.49c1.222-1.144,1.882-2.887,3.002-4.707
		c1.125,0.646,2.157,1.237,3.743,2.147c1.792-2.243,3.797-4.752,5.764-7.214c0.327,0.3,1,0.918,1.848,1.698
		c0.438-1.261,0.828-2.378,1.742-4.997c0.765,2.583,1.311,4.423,1.855,6.265c0.745-0.484,1.488-0.969,2.231-1.452
		c0.335-0.956,0.669-1.912,1.055-3.01c1.644,0.354,3.503,0.726,5.346,1.166c1.717,0.411,3.416,0.896,5.458,1.438
		c0.166-0.151,0.838-0.768,1.548-1.417C184.278,22.712,186.535,26.271,185.96,30.994z"/>
	<path d="M304.687,68.75c-0.55-3.333-0.834-5.06-1.253-7.596c-1.53,4.161-2.735,7.438-4.193,11.4
		c-1.82-1.289-3.034-2.149-4.479-3.172c0-2.118,0-4.272,0-6.104c-1.457-1.457-2.59-2.588-3.593-3.591
		c-0.782-3.625-1.528-7.093-2.455-11.386c2.499,0.406,4.694,0.764,8.117,1.32c2.467-0.375,4.033-3.71,5.318-6.627
		c4.756,1.501,8.921,2.814,13.358,4.216c-1.237,2.157-2.515,4.38-4.091,7.124c-2.329,0-4.708,0-7.548,0
		c2.913,4.023,5.352,7.392,8.217,11.349C309.769,66.645,307.582,67.55,304.687,68.75z"/>
	<path d="M359.356,102.666c-2.604,0-4.214,0-5.663,0c-1.573-2.35-3.1-4.627-4.288-6.404c2.044-5.62,4.068-11.191,6.333-17.413
		c5.862-2.955,12.254-6.174,20.22-10.188c-1.417,3.174-2.122,6.549-3.095,6.628c-4.664,0.38-5.417,5.955-9.942,6.669
		c-1.77,0.278-3.191,3.539-4.521,5.602c-1.454,2.256-2.618,4.698-3.968,7.164C355.958,97.186,357.518,99.702,359.356,102.666z"/>
	<path d="M147.218,44.553c3.588,0.651,0.644,1.771,0.241,2.734c1.192,1.646,2.413,3.33,3.633,5.014c0,0.642,0.267,1.503-0.047,1.888
		c-1.172,1.435-2.596,2.658-3.809,4.062c-1.143,1.321-2.139,2.771-3.917,5.104c-1.975-3.701-2.94-6.949-5.036-9.093
		c-2.958-3.027,3.028-6.228-0.751-8.753c0.978-3.005,1.957-6.01,3.437-10.558c1.356,2.323,2.318,3.209,2.292,4.063
		C143.172,41.98,144.429,43.756,147.218,44.553z"/>
	<path d="M413.59,38.721c1.045,0.788,2.468,1.861,3.946,2.978c-1.5,2.076-2.177,3.015-3.063,4.237
		c1.813,1.131,3.605,2.248,5.768,3.596c-0.832,2.648-1.779,5.659-2.863,9.11c-4.574-2.025-6.823-6.133-10.4-8.894
		c0-1.85,0-3.727,0-6.562C408.391,42.233,410.488,40.816,413.59,38.721z"/>
	<path d="M348.591,45.088c1.918-1.173,3.717-2.272,5.521-3.374c-0.474-0.769-1.063-1.729-1.908-3.101
		c2.49-1.837,4.94-3.645,9.146-6.744c-1.422,3.044-2.169,4.209-2.508,5.482c-0.385,1.447-0.402,2.991-0.747,5.9
		c2.372-2.006,3.717-3.499,5.373-4.445c1.729-0.988,3.757-1.453,7.119-2.682c-0.966,2.463-1.135,4.431-1.975,4.777
		c-4.231,1.752-6.942,4.777-8.471,9.548c-2.364-1.354-4.268-3.261-6.238-3.333C352.104,47.053,350.405,48.036,348.591,45.088z"/>
	<path d="M105.215,74.269c1.706-0.563,3.947-1.302,6.034-1.99c1.766,2.224,3.763,4.738,7.119,8.966
		c-0.457-3.158-0.444-4.284-0.81-5.271c-0.399-1.08-1.148-2.032-1.887-3.279c1.294-0.525,2.109-0.857,2.857-1.162
		c1.465,1.7,2.802,3.25,4.141,4.803c2.437,2.836,0.85,4.992-1.551,6.89c-0.668-0.603-1.346-1.216-1.801-1.627
		c-2.456,1.297-4.822,2.545-7.153,3.776c-1.509-1.657-2.888-3.172-5.445-5.982C106.551,78.821,105.893,76.579,105.215,74.269z"/>
	<path d="M347.909,259.82c-0.035,8.464-0.708,16.743-7.893,23.011c-1.069-2.113-2.09-4.129-3.033-5.993
		C340.001,267.055,340.001,267.055,347.909,259.82z"/>
	<path d="M442.211,234.633c1.749,0,3.266,0,5.605,0c-0.614,1.771-1.064,3.065-1.6,4.602c0.449,1.479,1.03,3.396,1.504,4.954
		c-2.085,2.098-3.812,3.833-6.223,6.257c-3.729-2.84-7.699-5.867-11.671-8.895c0.29-0.506,0.58-1.011,0.87-1.517
		c1.8,0.702,3.599,1.404,6.006,2.346C438.516,239.83,440.417,237.156,442.211,234.633z"/>
	<path d="M255.549,118.951c0,1.116,0,2.347,0,4.45c-1.441,1.032-3.474,2.487-6.209,4.446c-0.392,0-1.982,0-4.396,0
		c-1.124-1.536-2.6-3.553-4.755-6.496c0.174-0.524,0.822-2.48,1.338-4.042c1.15-0.343,1.838-0.736,2.015-0.574
		c2.6,2.393,4.974,2.055,7.069-0.251C252.244,117.301,253.815,118.085,255.549,118.951z"/>
	<path d="M527.14,298.15c2.299,1.331,4.012,2.323,6.199,3.593c-5.305,6.064-10.345,11.826-14.945,17.086
		c-0.933-0.646-2.2-1.525-4.035-2.797C519.974,310.573,524.492,304.915,527.14,298.15z"/>
</g>
</svg>
