<?xml version="1.0" encoding="utf-8"?>
<!-- Generator: Adobe Illustrator 16.0.0, SVG Export Plug-In . SVG Version: 6.00 Build 0)  -->
<!DOCTYPE svg PUBLIC "-//W3C//DTD SVG 1.1//EN" "http://www.w3.org/Graphics/SVG/1.1/DTD/svg11.dtd">
<svg version="1.1" id="Capa_1" xmlns="http://www.w3.org/2000/svg" xmlns:xlink="http://www.w3.org/1999/xlink" x="0px" y="0px"
	 width="117.817px" height="141.998px" viewBox="0 0 117.817 141.998" enable-background="new 0 0 117.817 141.998"
	 xml:space="preserve">
<g>
	<path fill-rule="evenodd" clip-rule="evenodd" d="M64.4,79.536c6.474-8.323,13.725-16.411,11.815-28.008
		c-2.02-12.26-9.182-21.583-19.316-30.787c-2.189,7.353-4.151,13.791-6.022,20.254C46.042,57.688,40.432,74.212,36.702,91.15
		c-2.907,13.2-25.256,17.036-33.891,9.294c-3.849-3.448-3.823-8.57,0.565-12.179c7.777-6.398,16.603-7.283,25.946-3.923
		c1.389,0.499,2.685,1.26,4.74,2.24C42.604,57.893,51.096,29.378,59.844,0c1.619,1.313,2.781,1.793,3.153,2.627
		c4.894,10.971,9.424,22.11,14.544,32.972C85.481,52.441,77.425,71.439,64.4,79.536z"/>
	<path fill-rule="evenodd" clip-rule="evenodd" d="M89.339,124.052c0.606-2.037,1.122-3.769,1.638-5.502
		c7.495-25.172,14.99-50.346,22.49-75.519c0.382-1.282,0.648-2.632,1.262-3.795c0.288-0.545,1.372-1.094,1.919-0.954
		c0.531,0.136,1.212,1.18,1.167,1.775c-0.101,1.31-0.586,2.598-0.968,3.879c-8.31,27.899-16.629,55.793-24.94,83.693
		c-3.764,12.633-21.441,18.626-32.412,10.982c-5.375-3.743-5.468-9.315-0.231-13.779c6.739-5.745,18.913-6.783,27.491-2.333
		C87.475,122.872,88.147,123.333,89.339,124.052z"/>
</g>
</svg>
