<?xml version="1.0" encoding="utf-8"?>
<!-- Generator: Adobe Illustrator 16.0.0, SVG Export Plug-In . SVG Version: 6.00 Build 0)  -->
<!DOCTYPE svg PUBLIC "-//W3C//DTD SVG 1.1//EN" "http://www.w3.org/Graphics/SVG/1.1/DTD/svg11.dtd">
<svg version="1.1" id="Capa_1" xmlns="http://www.w3.org/2000/svg" xmlns:xlink="http://www.w3.org/1999/xlink" x="0px" y="0px"
	 width="133.58px" height="311.393px" viewBox="0 0 133.58 311.393" enable-background="new 0 0 133.58 311.393"
	 xml:space="preserve">
<g>
	<path fill-rule="evenodd" clip-rule="evenodd" d="M50.782,298.764c4.531,6.025,11.235,7.282,17.444,6.724
		c6.936-0.624,14.18-2.479,20.373-5.61c9.777-4.945,13.68-14.395,12.021-24.852c-2.018-12.713-5.601-25.178-8.544-37.912
		c-15.382,2.889-29.85,3.053-44.179-1.354c-28.458-8.754-48.477-34.605-47.884-62.465c0.307-14.418,6.082-27.139,15.603-37.468
		c11.135-12.081,23.202-23.38,35.58-34.201c4.999-4.37,6.149-7.797,4.414-14.146c-5.884-21.531-6.33-43.02,3.193-63.902
		c3.502-7.679,7.938-14.67,14.837-19.732c7.918-5.809,11.72-5.178,17.28,2.854c7.004,10.121,11.498,21.4,13.924,33.383
		c4.904,24.221-3.461,44.875-18.223,63.465c-4.012,5.052-9.037,9.292-13.461,14.032c-1.014,1.086-2.301,2.888-2.041,4.04
		c2.111,9.364,4.563,18.653,6.764,27.384c7.652,0.677,14.939,0.467,21.797,2.079c26.547,6.236,41.206,34.453,30.227,57.509
		c-5.268,11.066-14.527,17.951-25.182,23.255c-1.898,0.944-3.806,1.87-5.896,2.896c2.586,10.76,5.039,21.254,7.635,31.713
		c6.014,24.23-5.916,41.338-30.883,44.43c-11.781,1.459-22.861-0.08-33.059-6.492c-13.272-8.344-16.324-22.797-7.021-33.459
		c7.962-9.124,22.322-10.095,31.41-2.123c9.571,8.396,7.643,21.762-4.072,26.756C59.245,297.098,55.224,297.621,50.782,298.764z
		 M64.631,124.129c-6.498,5.049-12.425,9.334-17.974,14.064c-4.933,4.205-9.796,8.597-14.044,13.47
		c-4.128,4.735-8.005,9.876-11,15.38c-10.958,20.133-6.468,41.264,11.304,54.139c9.934,7.196,21.246,11.105,33.457,11.604
		c7.824,0.319,15.693-0.467,24.286-0.784c-5.106-21.147-9.837-40.734-14.686-60.813c-10.151,3.443-18.03,8.47-21.202,18.33
		c-5.028,15.631,6.736,21.29,17.607,27.715c-1.741,0.892-3.282,1.539-4.48,1.145c-12.375-4.066-21.867-11.51-25.702-24.373
		c-3.766-12.633,1.209-23.055,10.417-31.324c5.331-4.787,11.818-8.285,18.247-12.679C68.984,142.212,66.93,133.678,64.631,124.129z
		 M63.918,90.828c10.126-7.341,18.513-15.511,24.99-25.549c4.94-7.657,8.179-15.91,8.564-25.125
		c0.444-10.58-8.321-16.6-17.575-11.596c-3.792,2.051-7.513,5.194-9.879,8.761C59.132,53.731,57.616,71.479,63.918,90.828z
		 M97.343,228.867c16.201-6.618,24.719-22.021,20.318-35.923c-4.418-13.959-21.126-24.494-34.387-21.432
		C87.937,190.524,92.6,209.532,97.343,228.867z"/>
</g>
</svg>
